<?xml version="1.0" encoding="iso-8859-1"?>
<!-- Generator: Adobe Illustrator 19.0.0, SVG Export Plug-In . SVG Version: 6.00 Build 0)  -->
<svg version="1.1" id="Capa_1" xmlns="http://www.w3.org/2000/svg" xmlns:xlink="http://www.w3.org/1999/xlink" x="0px" y="0px"
	 viewBox="0 0 512.016 512.016" style="enable-background:new 0 0 512.016 512.016;" xml:space="preserve">
<g>
	<g transform="translate(1 1)">
		<path style="fill:#A4C2F7;" d="M394.733,370.592l102.741,102.741c4.314,4.314,5.999,10.601,4.42,16.494
			c-1.579,5.893-6.182,10.496-12.075,12.075c-5.893,1.579-12.18-0.106-16.494-4.42L370.328,394.485L394.733,370.592z"/>
		<path style="fill:#7FACFA;" d="M383,67.275v151.381l-8.146,179.627c-13.929,1.195-156.067,1.792-171.055,1.792
			c-1.873,0-3.747,0-5.539-0.085C101.819,399.051,24.6,372.768,24.6,340.341V67.275H383z"/>
		<path style="fill:#FFFFFF;" d="M210.968,399.904c-8.021,0-15.275,0.085-21.504,0.085C88.429,399.051,7.533,372.768,7.533,340.341
			V67.275h25.6v273.067C33.133,372.341,111.811,398.368,210.968,399.904z"/>
		<g>
			<path style="fill:#A4C2F7;" d="M357.4,67.275v151.381l-8.533,179.627c-10.325,0.768-87.808,1.365-137.899,1.621
				c-99.157-1.536-177.835-27.563-177.835-59.563V67.275H357.4z"/>
			<path style="fill:#A4C2F7;" d="M383,67.275c0,33.024-76.412,59.733-170.667,59.733c-3.956,0-7.835-0.085-11.636-0.171
				c-88.824-2.048-159.03-27.904-159.03-59.563S111.873,9.76,200.697,7.712c3.801-0.085,7.68-0.171,11.636-0.171
				C306.588,7.541,383,34.251,383,67.275z"/>
		</g>
		<path style="fill:#FFFFFF;" d="M348.867,67.275c0,33.024-76.412,59.733-170.667,59.733c-3.956,0-7.835-0.085-11.636-0.171
			C77.739,124.789,7.533,98.933,7.533,67.275S77.739,9.76,166.564,7.712c3.801-0.085,7.68-0.171,11.636-0.171
			C272.455,7.541,348.867,34.251,348.867,67.275z"/>
		
			<linearGradient id="SVGID_1_" gradientUnits="userSpaceOnUse" x1="-49.6144" y1="651.0638" x2="-49.0834" y2="649.6186" gradientTransform="matrix(324.2667 0 0 -119.1253 16197.4678 77539.3984)">
			<stop  offset="0" style="stop-color:#D4E1F4"/>
			<stop  offset="0.1717" style="stop-color:#D4E1F4"/>
			<stop  offset="0.2" style="stop-color:#D4E1F4"/>
			<stop  offset="0.2001" style="stop-color:#DAE4F4"/>
			<stop  offset="0.2007" style="stop-color:#EBEBF4"/>
			<stop  offset="0.2014" style="stop-color:#F6F1F4"/>
			<stop  offset="0.2023" style="stop-color:#FDF4F4"/>
			<stop  offset="0.205" style="stop-color:#FFF5F4"/>
			<stop  offset="0.2522" style="stop-color:#FFF5F4"/>
			<stop  offset="0.26" style="stop-color:#FFF5F4"/>
			<stop  offset="0.26" style="stop-color:#D4E1F4"/>
			<stop  offset="0.3974" style="stop-color:#D4E1F4"/>
			<stop  offset="0.42" style="stop-color:#D4E1F4"/>
			<stop  offset="0.4201" style="stop-color:#DAE4F4"/>
			<stop  offset="0.4207" style="stop-color:#EBEBF4"/>
			<stop  offset="0.4214" style="stop-color:#F6F1F4"/>
			<stop  offset="0.4223" style="stop-color:#FDF4F4"/>
			<stop  offset="0.425" style="stop-color:#FFF5F4"/>
			<stop  offset="0.4894" style="stop-color:#FFF5F4"/>
			<stop  offset="0.5" style="stop-color:#FFF5F4"/>
			<stop  offset="0.5" style="stop-color:#F9F2F4"/>
			<stop  offset="0.5001" style="stop-color:#E8EBF4"/>
			<stop  offset="0.5003" style="stop-color:#DDE5F4"/>
			<stop  offset="0.5005" style="stop-color:#D6E2F4"/>
			<stop  offset="0.501" style="stop-color:#D4E1F4"/>
			<stop  offset="0.7062" style="stop-color:#D4E1F4"/>
			<stop  offset="0.74" style="stop-color:#D4E1F4"/>
			<stop  offset="0.741" style="stop-color:#FFF5F4"/>
			<stop  offset="0.8346" style="stop-color:#FFF5F4"/>
			<stop  offset="0.85" style="stop-color:#FFF5F4"/>
			<stop  offset="0.851" style="stop-color:#D4E1F4"/>
		</linearGradient>
		<ellipse style="fill:url(#SVGID_1_);" cx="195.267" cy="67.275" rx="162.133" ry="59.563"/>
		<rect x="374.467" y="289.568" style="fill:#ECF0F1;" width="17.067" height="23.296"/>
		<circle style="fill:#A4C2F7;" cx="302.744" cy="301.216" r="115.2"/>
		<ellipse style="fill:#E3E7F2;" cx="289.133" cy="301.216" rx="102.4" ry="115.2"/>
		
			<linearGradient id="SVGID_2_" gradientUnits="userSpaceOnUse" x1="-49.4632" y1="651.3734" x2="-48.9323" y2="649.9282" gradientTransform="matrix(162.1333 0 0 -162.1333 8279.3447 105793.3984)">
			<stop  offset="0" style="stop-color:#D4E1F4"/>
			<stop  offset="0.1717" style="stop-color:#D4E1F4"/>
			<stop  offset="0.2" style="stop-color:#D4E1F4"/>
			<stop  offset="0.2001" style="stop-color:#DAE4F4"/>
			<stop  offset="0.2007" style="stop-color:#EBEBF4"/>
			<stop  offset="0.2014" style="stop-color:#F6F1F4"/>
			<stop  offset="0.2023" style="stop-color:#FDF4F4"/>
			<stop  offset="0.205" style="stop-color:#FFF5F4"/>
			<stop  offset="0.2522" style="stop-color:#FFF5F4"/>
			<stop  offset="0.26" style="stop-color:#FFF5F4"/>
			<stop  offset="0.26" style="stop-color:#D4E1F4"/>
			<stop  offset="0.3974" style="stop-color:#D4E1F4"/>
			<stop  offset="0.42" style="stop-color:#D4E1F4"/>
			<stop  offset="0.4201" style="stop-color:#DAE4F4"/>
			<stop  offset="0.4207" style="stop-color:#EBEBF4"/>
			<stop  offset="0.4214" style="stop-color:#F6F1F4"/>
			<stop  offset="0.4223" style="stop-color:#FDF4F4"/>
			<stop  offset="0.425" style="stop-color:#FFF5F4"/>
			<stop  offset="0.4894" style="stop-color:#FFF5F4"/>
			<stop  offset="0.5" style="stop-color:#FFF5F4"/>
			<stop  offset="0.5" style="stop-color:#F9F2F4"/>
			<stop  offset="0.5001" style="stop-color:#E8EBF4"/>
			<stop  offset="0.5003" style="stop-color:#DDE5F4"/>
			<stop  offset="0.5005" style="stop-color:#D6E2F4"/>
			<stop  offset="0.501" style="stop-color:#D4E1F4"/>
			<stop  offset="0.7062" style="stop-color:#D4E1F4"/>
			<stop  offset="0.74" style="stop-color:#D4E1F4"/>
			<stop  offset="0.741" style="stop-color:#FFF5F4"/>
			<stop  offset="0.8346" style="stop-color:#FFF5F4"/>
			<stop  offset="0.85" style="stop-color:#FFF5F4"/>
			<stop  offset="0.851" style="stop-color:#D4E1F4"/>
		</linearGradient>
		<circle style="fill:url(#SVGID_2_);" cx="302.744" cy="301.216" r="81.067"/>
	</g>
	<g>
		<path style="fill:#428DFF;" d="M196.267,136.541C101.121,136.541,0,112.616,0,68.275S101.121,0.008,196.267,0.008
			s196.267,23.925,196.267,68.267S291.412,136.541,196.267,136.541z M196.267,17.075c-111.025,0-179.2,29.817-179.2,51.2
			s68.175,51.2,179.2,51.2s179.2-29.817,179.2-51.2S307.292,17.075,196.267,17.075z"/>
		<path style="fill:#428DFF;" d="M196.267,204.808c-8.808,0-17.464-0.186-25.967-0.558c-4.683-0.235-8.298-4.205-8.097-8.889
			s4.144-8.328,8.83-8.161c8.25,0.35,16.661,0.53,25.234,0.541c111.025,0,179.2-29.817,179.2-51.2c0-4.713,3.821-8.533,8.533-8.533
			s8.533,3.821,8.533,8.533C392.533,180.883,291.412,204.808,196.267,204.808z"/>
		<path style="fill:#428DFF;" d="M136.546,201.725c-0.308,0-0.615-0.017-0.921-0.05c-12.042-1.292-23.737-2.975-34.767-5
			c-3.005-0.544-5.489-2.652-6.515-5.528c-1.026-2.876-0.437-6.081,1.544-8.404c1.981-2.323,5.053-3.411,8.055-2.851
			c10.613,1.95,21.883,3.567,33.5,4.817c4.507,0.483,7.85,4.406,7.611,8.933S141.079,201.717,136.546,201.725L136.546,201.725z"/>
		<path style="fill:#428DFF;" d="M68.271,188.775c-0.824,0.002-1.643-0.116-2.433-0.35C22.767,175.641,0,157.7,0,136.541
			c0-4.713,3.821-8.533,8.533-8.533s8.533,3.821,8.533,8.533c0,9.475,14.088,23.783,53.629,35.517
			c4.062,1.208,6.623,5.213,6.014,9.407C76.102,185.659,72.509,188.771,68.271,188.775L68.271,188.775z"/>
		<path style="fill:#428DFF;" d="M380.492,224.858c-3.105-0.003-5.963-1.692-7.463-4.41c-1.5-2.718-1.406-6.037,0.247-8.665
			c1.379-2.069,2.139-4.489,2.192-6.975c0-4.713,3.821-8.533,8.533-8.533s8.533,3.821,8.533,8.533
			c-0.059,5.699-1.726,11.265-4.808,16.058C386.161,223.353,383.429,224.861,380.492,224.858L380.492,224.858z"/>
		<path style="fill:#428DFF;" d="M194.988,273.075c-8.404,0-16.633-0.172-24.688-0.517c-4.688-0.228-8.311-4.2-8.11-8.889
			c0.202-4.689,4.153-8.335,8.843-8.16c7.817,0.333,15.801,0.5,23.954,0.5c4.713,0,8.533,3.821,8.533,8.533
			C203.521,269.254,199.7,273.075,194.988,273.075z"/>
		<path style="fill:#428DFF;" d="M136.546,269.991c-0.308,0-0.615-0.017-0.921-0.05c-12.042-1.292-23.737-2.975-34.767-5
			c-3.005-0.544-5.489-2.652-6.515-5.528c-1.026-2.876-0.437-6.081,1.544-8.404c1.981-2.323,5.053-3.411,8.055-2.851
			c10.613,1.95,21.883,3.567,33.5,4.817c4.507,0.483,7.85,4.406,7.611,8.933S141.079,269.984,136.546,269.991L136.546,269.991z"/>
		<path style="fill:#428DFF;" d="M68.271,257.041c-0.824,0.002-1.643-0.116-2.433-0.35C22.767,243.908,0,225.966,0,204.808
			c0-4.713,3.821-8.533,8.533-8.533s8.533,3.821,8.533,8.533c0,9.475,14.088,23.783,53.629,35.517
			c4.062,1.208,6.623,5.213,6.014,9.407C76.102,253.925,72.509,257.038,68.271,257.041L68.271,257.041z"/>
		<path style="fill:#428DFF;" d="M192.683,341.258c-7.608,0-15.05-0.175-22.313-0.433c-3.059-0.087-5.836-1.807-7.279-4.505
			c-1.443-2.699-1.329-5.963,0.297-8.555c1.626-2.592,4.516-4.114,7.574-3.99c7.071,0.242,14.312,0.417,21.721,0.417
			c4.713,0,8.533,3.82,8.533,8.533S197.396,341.258,192.683,341.258L192.683,341.258z"/>
		<path style="fill:#428DFF;" d="M136.546,338.258c-0.308,0-0.615-0.017-0.921-0.05c-12.042-1.292-23.737-2.975-34.767-5
			c-3.005-0.544-5.489-2.652-6.515-5.528c-1.026-2.876-0.437-6.081,1.544-8.404c1.981-2.323,5.053-3.411,8.055-2.851
			c10.613,1.95,21.883,3.567,33.5,4.817c4.507,0.483,7.85,4.406,7.611,8.933S141.079,338.251,136.546,338.258L136.546,338.258z"/>
		<path style="fill:#428DFF;" d="M68.271,325.308c-0.824,0.002-1.643-0.116-2.433-0.35C22.767,312.174,0,294.233,0,273.075
			c0-4.713,3.821-8.533,8.533-8.533s8.533,3.82,8.533,8.533c0,9.475,14.088,23.783,53.629,35.517
			c4.062,1.208,6.623,5.213,6.014,9.407S72.509,325.305,68.271,325.308L68.271,325.308z"/>
		<path style="fill:#428DFF;" d="M384,322.4c-2.263,0.001-4.434-0.898-6.035-2.499s-2.499-3.771-2.499-6.035v-23.3
			c0-4.713,3.821-8.533,8.533-8.533s8.533,3.82,8.533,8.533v23.3c0.001,2.263-0.898,4.434-2.499,6.035
			C388.434,321.501,386.263,322.4,384,322.4L384,322.4z"/>
		<path style="fill:#428DFF;" d="M384,228.191c-2.263,0.001-4.434-0.898-6.035-2.499c-1.6-1.6-2.499-3.771-2.499-6.035V68.275
			c0-4.713,3.821-8.533,8.533-8.533s8.533,3.821,8.533,8.533v151.383c0.001,2.263-0.898,4.434-2.499,6.035
			C388.434,227.293,386.263,228.192,384,228.191L384,228.191z"/>
		<path style="fill:#428DFF;" d="M196.267,409.608C101.121,409.608,0,385.683,0,341.341V68.275c0-4.713,3.821-8.533,8.533-8.533
			s8.533,3.821,8.533,8.533v273.067c0,24.166,76.638,51.2,179.2,51.2c15.446,0,30.546-0.592,44.871-1.766
			c4.695-0.377,8.808,3.119,9.192,7.813c0.384,4.694-3.107,8.813-7.8,9.203C227.742,409,212.175,409.608,196.267,409.608z"/>
		<path style="fill:#428DFF;" d="M303.746,425.949c-68.336,0-123.733-55.397-123.733-123.733s55.397-123.733,123.733-123.733
			s123.733,55.397,123.733,123.733C427.401,370.52,372.049,425.871,303.746,425.949L303.746,425.949z M303.746,195.549
			c-58.91,0-106.667,47.756-106.667,106.667s47.756,106.667,106.667,106.667s106.667-47.756,106.667-106.667
			C410.346,243.333,362.629,195.616,303.746,195.549z"/>
		<path style="fill:#428DFF;" d="M303.746,391.816c-49.485,0-89.6-40.115-89.6-89.6s40.115-89.6,89.6-89.6s89.6,40.115,89.6,89.6
			C393.29,351.678,353.208,391.761,303.746,391.816L303.746,391.816z M303.746,229.683c-40.059,0-72.533,32.474-72.533,72.533
			s32.474,72.533,72.533,72.533s72.533-32.474,72.533-72.533C376.233,262.176,343.786,229.729,303.746,229.683z"/>
		<path style="fill:#428DFF;" d="M486.4,512.008c-6.792,0.011-13.309-2.685-18.108-7.492l-102.996-103
			c-2.156-2.156-2.997-5.297-2.208-8.242c0.789-2.944,3.089-5.244,6.033-6.033c2.944-0.789,6.086,0.053,8.242,2.208l102.996,103
			c2.157,2.166,5.307,3.015,8.26,2.226s5.26-3.096,6.048-6.05c0.788-2.954-0.062-6.103-2.229-8.259L389.7,377.625
			c-3.321-3.334-3.315-8.727,0.012-12.054c3.327-3.327,8.72-3.333,12.054-0.013l102.741,102.741
			c7.329,7.321,9.523,18.338,5.559,27.908S496.759,512.015,486.4,512.008L486.4,512.008z"/>
	</g>
</g>
<g>
</g>
<g>
</g>
<g>
</g>
<g>
</g>
<g>
</g>
<g>
</g>
<g>
</g>
<g>
</g>
<g>
</g>
<g>
</g>
<g>
</g>
<g>
</g>
<g>
</g>
<g>
</g>
<g>
</g>
</svg>
